{
    "asset" : {
        "generator" : "Khronos glTF Blender I/O v3.4.50",
        "version" : "2.0"
    },
    "scene" : 0,
    "scenes" : [
        {
            "name" : "Scene",
            "nodes" : [
                0,
                1,
                2,
                3,
                4,
                5,
                6,
                7
            ]
        }
    ],
    "nodes" : [
        {
            "mesh" : 0,
            "name" : "Text",
            "rotation" : [
                0.6374883651733398,
                -0.305955171585083,
                0.3059552013874054,
                0.6374884247779846
            ],
            "translation" : [
                -2.782167673110962,
                -0.5466576218605042,
                4.527872562408447
            ]
        },
        {
            "mesh" : 1,
            "name" : "Text.001",
            "rotation" : [
                0.4924992024898529,
                -0.5073899626731873,
                0.5073899626731873,
                0.4924991726875305
            ],
            "translation" : [
                -5.896890640258789,
                -1.0650014877319336,
                0.3525659441947937
            ]
        },
        {
            "mesh" : 2,
            "name" : "Text.002",
            "rotation" : [
                0.22814656794071198,
                -0.6692900657653809,
                0.6692900061607361,
                0.22814656794071198
            ],
            "translation" : [
                -2.974482536315918,
                -1.5308939218521118,
                -4.424225330352783
            ]
        },
        {
            "mesh" : 3,
            "name" : "Text.003",
            "rotation" : [
                0.2713409960269928,
                0.6529732942581177,
                -0.6529732346534729,
                0.2713409960269928
            ],
            "translation" : [
                2.9058406352996826,
                -2.5676491260528564,
                -4.4431867599487305
            ]
        },
        {
            "mesh" : 4,
            "name" : "Text.004",
            "rotation" : [
                0.4945394694805145,
                0.5054015517234802,
                -0.5054015517234802,
                0.49453943967819214
            ],
            "translation" : [
                5.926588535308838,
                -3.0593559741973877,
                -0.24424955248832703
            ]
        },
        {
            "mesh" : 5,
            "name" : "Text.005",
            "rotation" : [
                0.6733720898628235,
                0.21580088138580322,
                -0.21580088138580322,
                0.6733721494674683
            ],
            "translation" : [
                2.9647645950317383,
                -3.655529499053955,
                4.434925556182861
            ]
        },
        {
            "mesh" : 6,
            "name" : "sphereCenter2",
            "scale" : [
                0.30967941880226135,
                0.30967941880226135,
                0.30967941880226135
            ]
        },
        {
            "mesh" : 7,
            "name" : "sphereCenter1",
            "scale" : [
                0.27551183104515076,
                0.27551183104515076,
                0.27551183104515076
            ]
        }
    ],
    "materials" : [
        {
            "doubleSided" : true,
            "emissiveFactor" : [
                0.32293139787242353,
                0.32293139787242353,
                0.32293139787242353
            ],
            "name" : "Material.002",
            "pbrMetallicRoughness" : {
                "baseColorFactor" : [
                    0.800000011920929,
                    0.800000011920929,
                    0.800000011920929,
                    1
                ],
                "metallicFactor" : 0
            }
        },
        {
            "alphaMode" : "BLEND",
            "doubleSided" : true,
            "name" : "Material.006",
            "pbrMetallicRoughness" : {
                "baseColorFactor" : [
                    0.800000011920929,
                    0.800000011920929,
                    0.800000011920929,
                    0
                ],
                "metallicFactor" : 0,
                "roughnessFactor" : 0.5
            }
        }
    ],
    "meshes" : [
        {
            "name" : "Text",
            "primitives" : [
                {
                    "attributes" : {
                        "POSITION" : 0,
                        "TEXCOORD_0" : 1,
                        "NORMAL" : 2
                    },
                    "indices" : 3,
                    "material" : 0
                }
            ]
        },
        {
            "name" : "Text.001",
            "primitives" : [
                {
                    "attributes" : {
                        "POSITION" : 4,
                        "TEXCOORD_0" : 5,
                        "NORMAL" : 6
                    },
                    "indices" : 7,
                    "material" : 0
                }
            ]
        },
        {
            "name" : "Text.002",
            "primitives" : [
                {
                    "attributes" : {
                        "POSITION" : 8,
                        "TEXCOORD_0" : 9,
                        "NORMAL" : 10
                    },
                    "indices" : 11,
                    "material" : 0
                }
            ]
        },
        {
            "name" : "Text.003",
            "primitives" : [
                {
                    "attributes" : {
                        "POSITION" : 12,
                        "TEXCOORD_0" : 13,
                        "NORMAL" : 14
                    },
                    "indices" : 15,
                    "material" : 0
                }
            ]
        },
        {
            "name" : "Text.004",
            "primitives" : [
                {
                    "attributes" : {
                        "POSITION" : 16,
                        "TEXCOORD_0" : 17,
                        "NORMAL" : 18
                    },
                    "indices" : 19,
                    "material" : 0
                }
            ]
        },
        {
            "name" : "Text.005",
            "primitives" : [
                {
                    "attributes" : {
                        "POSITION" : 20,
                        "TEXCOORD_0" : 21,
                        "NORMAL" : 22
                    },
                    "indices" : 23,
                    "material" : 0
                }
            ]
        },
        {
            "name" : "Sphere.010",
            "primitives" : [
                {
                    "attributes" : {
                        "POSITION" : 24,
                        "TEXCOORD_0" : 25,
                        "NORMAL" : 26
                    },
                    "indices" : 27,
                    "material" : 0
                }
            ]
        },
        {
            "name" : "Sphere.011",
            "primitives" : [
                {
                    "attributes" : {
                        "POSITION" : 28,
                        "TEXCOORD_0" : 29,
                        "NORMAL" : 30
                    },
                    "indices" : 31,
                    "material" : 1
                }
            ]
        }
    ],
    "accessors" : [
        {
            "bufferView" : 0,
            "componentType" : 5126,
            "count" : 1466,
            "max" : [
                0.6710588932037354,
                0.05999999865889549,
                0.25877755880355835
            ],
            "min" : [
                -0.7495760321617126,
                -0.05999999865889549,
                -0.27296850085258484
            ],
            "type" : "VEC3"
        },
        {
            "bufferView" : 1,
            "componentType" : 5126,
            "count" : 1466,
            "type" : "VEC2"
        },
        {
            "bufferView" : 2,
            "componentType" : 5126,
            "count" : 1466,
            "type" : "VEC3"
        },
        {
            "bufferView" : 3,
            "componentType" : 5123,
            "count" : 2844,
            "type" : "SCALAR"
        },
        {
            "bufferView" : 4,
            "componentType" : 5126,
            "count" : 944,
            "max" : [
                0.3088040351867676,
                0.05999999865889549,
                0.20905554294586182
            ],
            "min" : [
                -1.3181800842285156,
                -0.05999999865889549,
                -0.2988809645175934
            ],
            "type" : "VEC3"
        },
        {
            "bufferView" : 5,
            "componentType" : 5126,
            "count" : 944,
            "type" : "VEC2"
        },
        {
            "bufferView" : 6,
            "componentType" : 5126,
            "count" : 944,
            "type" : "VEC3"
        },
        {
            "bufferView" : 7,
            "componentType" : 5123,
            "count" : 1752,
            "type" : "SCALAR"
        },
        {
            "bufferView" : 8,
            "componentType" : 5126,
            "count" : 4242,
            "max" : [
                1.0583397150039673,
                0.05999999865889549,
                0.21468864381313324
            ],
            "min" : [
                -1.1956286430358887,
                -0.05999999865889549,
                -0.29721611738204956
            ],
            "type" : "VEC3"
        },
        {
            "bufferView" : 9,
            "componentType" : 5126,
            "count" : 4242,
            "type" : "VEC2"
        },
        {
            "bufferView" : 10,
            "componentType" : 5126,
            "count" : 4242,
            "type" : "VEC3"
        },
        {
            "bufferView" : 11,
            "componentType" : 5123,
            "count" : 7800,
            "type" : "SCALAR"
        },
        {
            "bufferView" : 12,
            "componentType" : 5126,
            "count" : 3680,
            "max" : [
                0.9787212610244751,
                0.05999999865889549,
                0.22465357184410095
            ],
            "min" : [
                -0.9577866792678833,
                -0.05999999865889549,
                -0.30709248781204224
            ],
            "type" : "VEC3"
        },
        {
            "bufferView" : 13,
            "componentType" : 5126,
            "count" : 3680,
            "type" : "VEC2"
        },
        {
            "bufferView" : 14,
            "componentType" : 5126,
            "count" : 3680,
            "type" : "VEC3"
        },
        {
            "bufferView" : 15,
            "componentType" : 5123,
            "count" : 6768,
            "type" : "SCALAR"
        },
        {
            "bufferView" : 16,
            "componentType" : 5126,
            "count" : 2071,
            "max" : [
                0.651898980140686,
                0.05999999865889549,
                0.19510537385940552
            ],
            "min" : [
                -1.1139739751815796,
                -0.05999999865889549,
                -0.3128311336040497
            ],
            "type" : "VEC3"
        },
        {
            "bufferView" : 17,
            "componentType" : 5126,
            "count" : 2071,
            "type" : "VEC2"
        },
        {
            "bufferView" : 18,
            "componentType" : 5126,
            "count" : 2071,
            "type" : "VEC3"
        },
        {
            "bufferView" : 19,
            "componentType" : 5123,
            "count" : 3876,
            "type" : "SCALAR"
        },
        {
            "bufferView" : 20,
            "componentType" : 5126,
            "count" : 2490,
            "max" : [
                0.7272197008132935,
                0.05999999865889549,
                0.17245757579803467
            ],
            "min" : [
                -1.371986746788025,
                -0.05999999865889549,
                -0.33547893166542053
            ],
            "type" : "VEC3"
        },
        {
            "bufferView" : 21,
            "componentType" : 5126,
            "count" : 2490,
            "type" : "VEC2"
        },
        {
            "bufferView" : 22,
            "componentType" : 5126,
            "count" : 2490,
            "type" : "VEC3"
        },
        {
            "bufferView" : 23,
            "componentType" : 5123,
            "count" : 4500,
            "type" : "SCALAR"
        },
        {
            "bufferView" : 24,
            "componentType" : 5126,
            "count" : 3102,
            "max" : [
                1.0099999904632568,
                1.0100055932998657,
                1.0100021362304688
            ],
            "min" : [
                -1.0099986791610718,
                -1.009994387626648,
                -1.0099973678588867
            ],
            "type" : "VEC3"
        },
        {
            "bufferView" : 25,
            "componentType" : 5126,
            "count" : 3102,
            "type" : "VEC2"
        },
        {
            "bufferView" : 26,
            "componentType" : 5126,
            "count" : 3102,
            "type" : "VEC3"
        },
        {
            "bufferView" : 27,
            "componentType" : 5123,
            "count" : 23808,
            "type" : "SCALAR"
        },
        {
            "bufferView" : 28,
            "componentType" : 5126,
            "count" : 1984,
            "max" : [
                0.9999997019767761,
                1,
                0.9999993443489075
            ],
            "min" : [
                -0.9999990463256836,
                -1,
                -1
            ],
            "type" : "VEC3"
        },
        {
            "bufferView" : 29,
            "componentType" : 5126,
            "count" : 1984,
            "type" : "VEC2"
        },
        {
            "bufferView" : 30,
            "componentType" : 5126,
            "count" : 1984,
            "type" : "VEC3"
        },
        {
            "bufferView" : 31,
            "componentType" : 5123,
            "count" : 2880,
            "type" : "SCALAR"
        }
    ],
    "bufferViews" : [
        {
            "buffer" : 0,
            "byteLength" : 17592,
            "byteOffset" : 0,
            "target" : 34962
        },
        {
            "buffer" : 0,
            "byteLength" : 11728,
            "byteOffset" : 17592,
            "target" : 34962
        },
        {
            "buffer" : 0,
            "byteLength" : 17592,
            "byteOffset" : 29320,
            "target" : 34962
        },
        {
            "buffer" : 0,
            "byteLength" : 5688,
            "byteOffset" : 46912,
            "target" : 34963
        },
        {
            "buffer" : 0,
            "byteLength" : 11328,
            "byteOffset" : 52600,
            "target" : 34962
        },
        {
            "buffer" : 0,
            "byteLength" : 7552,
            "byteOffset" : 63928,
            "target" : 34962
        },
        {
            "buffer" : 0,
            "byteLength" : 11328,
            "byteOffset" : 71480,
            "target" : 34962
        },
        {
            "buffer" : 0,
            "byteLength" : 3504,
            "byteOffset" : 82808,
            "target" : 34963
        },
        {
            "buffer" : 0,
            "byteLength" : 50904,
            "byteOffset" : 86312,
            "target" : 34962
        },
        {
            "buffer" : 0,
            "byteLength" : 33936,
            "byteOffset" : 137216,
            "target" : 34962
        },
        {
            "buffer" : 0,
            "byteLength" : 50904,
            "byteOffset" : 171152,
            "target" : 34962
        },
        {
            "buffer" : 0,
            "byteLength" : 15600,
            "byteOffset" : 222056,
            "target" : 34963
        },
        {
            "buffer" : 0,
            "byteLength" : 44160,
            "byteOffset" : 237656,
            "target" : 34962
        },
        {
            "buffer" : 0,
            "byteLength" : 29440,
            "byteOffset" : 281816,
            "target" : 34962
        },
        {
            "buffer" : 0,
            "byteLength" : 44160,
            "byteOffset" : 311256,
            "target" : 34962
        },
        {
            "buffer" : 0,
            "byteLength" : 13536,
            "byteOffset" : 355416,
            "target" : 34963
        },
        {
            "buffer" : 0,
            "byteLength" : 24852,
            "byteOffset" : 368952,
            "target" : 34962
        },
        {
            "buffer" : 0,
            "byteLength" : 16568,
            "byteOffset" : 393804,
            "target" : 34962
        },
        {
            "buffer" : 0,
            "byteLength" : 24852,
            "byteOffset" : 410372,
            "target" : 34962
        },
        {
            "buffer" : 0,
            "byteLength" : 7752,
            "byteOffset" : 435224,
            "target" : 34963
        },
        {
            "buffer" : 0,
            "byteLength" : 29880,
            "byteOffset" : 442976,
            "target" : 34962
        },
        {
            "buffer" : 0,
            "byteLength" : 19920,
            "byteOffset" : 472856,
            "target" : 34962
        },
        {
            "buffer" : 0,
            "byteLength" : 29880,
            "byteOffset" : 492776,
            "target" : 34962
        },
        {
            "buffer" : 0,
            "byteLength" : 9000,
            "byteOffset" : 522656,
            "target" : 34963
        },
        {
            "buffer" : 0,
            "byteLength" : 37224,
            "byteOffset" : 531656,
            "target" : 34962
        },
        {
            "buffer" : 0,
            "byteLength" : 24816,
            "byteOffset" : 568880,
            "target" : 34962
        },
        {
            "buffer" : 0,
            "byteLength" : 37224,
            "byteOffset" : 593696,
            "target" : 34962
        },
        {
            "buffer" : 0,
            "byteLength" : 47616,
            "byteOffset" : 630920,
            "target" : 34963
        },
        {
            "buffer" : 0,
            "byteLength" : 23808,
            "byteOffset" : 678536,
            "target" : 34962
        },
        {
            "buffer" : 0,
            "byteLength" : 15872,
            "byteOffset" : 702344,
            "target" : 34962
        },
        {
            "buffer" : 0,
            "byteLength" : 23808,
            "byteOffset" : 718216,
            "target" : 34962
        },
        {
            "buffer" : 0,
            "byteLength" : 5760,
            "byteOffset" : 742024,
            "target" : 34963
        }
    ],
    "buffers" : [
        {
            "byteLength" : 747784,
            "uri" : "data:application/octet-stream;base64,"
        }
    ]
}
